<svg width="65" height="65" viewBox="0 0 65 65" fill="none" xmlns="http://www.w3.org/2000/svg">
<path d="M62.6229 13.8836C63.3789 13.1302 63.9781 12.2345 64.386 11.2483C64.7939 10.262 65.0024 9.20481 64.9994 8.1376C65.0106 6.52574 64.5394 4.94736 63.6464 3.60531C62.7534 2.26326 61.4793 1.21884 59.988 0.606294C58.4967 -0.00625664 56.8563 -0.15896 55.2775 0.167809C53.6987 0.494577 52.2537 1.28589 51.1283 2.44005C49.7485 3.82019 48.1103 4.91502 46.3072 5.66199C44.5042 6.40896 42.5715 6.79343 40.6198 6.79343C38.6681 6.79343 36.7354 6.40896 34.9324 5.66199C33.1293 4.91502 31.4911 3.82019 30.1113 2.44005C28.9749 1.30498 27.5273 0.532238 25.9517 0.21951C24.376 -0.0932182 22.743 0.0681027 21.2591 0.683081C19.7751 1.29806 18.5068 2.33909 17.6145 3.67457C16.7222 5.01006 16.246 6.58005 16.246 8.18609C16.246 9.79213 16.7222 11.3621 17.6145 12.6976C18.5068 14.0331 19.7751 15.0741 21.2591 15.6891C22.743 16.3041 24.376 16.4654 25.9517 16.1527C27.5273 15.8399 28.9749 15.0672 30.1113 13.9321C31.4905 12.551 33.1286 11.4553 34.9317 10.7078C36.7349 9.96019 38.6678 9.5754 40.6198 9.5754C42.5718 9.5754 44.5047 9.96019 46.3079 10.7078C48.111 11.4553 49.7491 12.551 51.1283 13.9321C53.9142 16.7191 55.4793 20.498 55.4793 24.4383C55.4793 28.3785 53.9142 32.1574 51.1283 34.9444C49.7491 36.3255 48.111 37.4212 46.3079 38.1688C44.5047 38.9163 42.5718 39.3011 40.6198 39.3011C38.6678 39.3011 36.7349 38.9163 34.9317 38.1688C33.1286 37.4212 31.4905 36.3255 30.1113 34.9444C28.9749 33.8054 27.5259 33.0292 25.9479 32.7139C24.37 32.3986 22.7339 32.5585 21.2469 33.1733C19.7598 33.7881 18.4886 34.8301 17.5942 36.1675C16.6998 37.5049 16.2224 39.0776 16.2224 40.6864C16.2224 42.2952 16.6998 43.8679 17.5942 45.2053C18.4886 46.5427 19.7598 47.5847 21.2469 48.1995C22.7339 48.8143 24.37 48.9742 25.9479 48.6589C27.5259 48.3436 28.9749 47.5674 30.1113 46.4284C32.8989 43.643 36.6787 42.0784 40.6198 42.0784C44.5609 42.0784 48.3407 43.643 51.1283 46.4284C52.2561 47.5852 53.7048 48.3774 55.2875 48.703C56.8701 49.0286 58.514 48.8725 60.007 48.2549C61.5001 47.6373 62.7737 46.5865 63.6636 45.2381C64.5535 43.8898 65.0188 42.3057 64.9994 40.6904C65.0024 39.6232 64.7939 38.566 64.386 37.5798C63.9781 36.5935 63.3789 35.6978 62.6229 34.9444C61.2342 33.5646 60.1321 31.9239 59.3801 30.1167C58.628 28.3095 58.2408 26.3714 58.2408 24.414C58.2408 22.4566 58.628 20.5186 59.3801 18.7113C60.1321 16.9041 61.2342 15.2634 62.6229 13.8836Z" fill="#0097A9"/>
<path d="M40.6279 48.7559C39.5604 48.7529 38.503 48.9614 37.5165 49.3692C36.5301 49.777 35.6342 50.3761 34.8806 51.1319C33.5014 52.513 31.8633 53.6087 30.0602 54.3563C28.257 55.1038 26.3242 55.4886 24.3721 55.4886C22.4201 55.4886 20.4872 55.1038 18.684 54.3563C16.8809 53.6087 15.2428 52.513 13.8637 51.1319C12.4822 49.753 11.3863 48.1154 10.6386 46.3126C9.89084 44.5098 9.50596 42.5774 9.50596 40.6258C9.50596 38.6742 9.89084 36.7417 10.6386 34.939C11.3863 33.1362 12.4822 31.4985 13.8637 30.1197C15.2428 28.7385 16.8809 27.6429 18.684 26.8953C20.4872 26.1477 22.4201 25.7629 24.3721 25.7629C26.3242 25.7629 28.257 26.1477 30.0602 26.8953C31.8633 27.6429 33.5014 28.7385 34.8806 30.1197C36.0171 31.2586 37.466 32.0349 39.044 32.3501C40.6219 32.6654 42.258 32.5055 43.745 31.8908C45.2321 31.276 46.5033 30.2339 47.3977 28.8965C48.2921 27.5591 48.7695 25.9865 48.7695 24.3776C48.7695 22.7688 48.2921 21.1962 47.3977 19.8588C46.5033 18.5214 45.2321 17.4793 43.745 16.8645C42.258 16.2498 40.6219 16.0899 39.044 16.4052C37.466 16.7204 36.0171 17.4967 34.8806 18.6356C32.093 21.421 28.3132 22.9857 24.3721 22.9857C20.431 22.9857 16.6512 21.421 13.8637 18.6356C12.7348 17.4812 11.2861 16.6913 9.70408 16.3676C8.12209 16.0439 6.47939 16.2014 4.98772 16.8196C3.49605 17.4379 2.22378 18.4887 1.3349 19.8365C0.446026 21.1843 -0.018717 22.7674 0.000577295 24.3817C0.00394805 25.4523 0.22006 26.5116 0.63636 27.498C1.05266 28.4844 1.66085 29.3783 2.42561 30.1277C5.21159 32.9147 6.7766 36.6936 6.7766 40.6339C6.7766 44.5741 5.21159 48.353 2.42561 51.14C1.66182 51.8885 1.05419 52.781 0.637917 53.766C0.221647 54.7509 0.00501712 55.8087 0.000577295 56.8779C0.00328279 58.4835 0.481389 60.0522 1.37462 61.3865C2.26784 62.7207 3.53619 63.7606 5.01976 64.3752C6.50332 64.9897 8.13567 65.1514 9.71099 64.8397C11.2863 64.5281 12.7341 63.7571 13.8717 62.624C15.2509 61.2429 16.889 60.1472 18.6921 59.3996C20.4953 58.6521 22.4282 58.2673 24.3802 58.2673C26.3322 58.2673 28.2651 58.6521 30.0683 59.3996C31.8714 60.1472 33.5095 61.2429 34.8887 62.624C35.8335 63.5677 36.9965 64.2639 38.2747 64.6511C39.5529 65.0382 40.9068 65.1044 42.2167 64.8436C43.5265 64.5829 44.7518 64.0033 45.7842 63.1561C46.8166 62.309 47.6241 61.2205 48.1353 59.9869C48.6465 58.7533 48.8457 57.4128 48.7151 56.0839C48.5846 54.7551 48.1283 53.4789 47.3868 52.3683C46.6452 51.2578 45.6413 50.3472 44.4637 49.7171C43.2862 49.087 41.9715 48.7569 40.636 48.7559H40.6279Z" fill="#65428A"/>
</svg>
