<svg width="241" height="65" xmlns="http://www.w3.org/2000/svg" fill="none">

 <g>
  <title>Layer 1</title>
  <path id="svg_1" fill="#0097A9" d="m62.6229,13.8836c0.756,-0.7534 1.3552,-1.6491 1.7631,-2.6353c0.4079,-0.9863 0.6164,-2.04349 0.6134,-3.1107c0.0112,-1.61186 -0.46,-3.19024 -1.353,-4.53229c-0.893,-1.34205 -2.1671,-2.38647 -3.6584,-2.99902c-1.4913,-0.61255 -3.1317,-0.76525 -4.7105,-0.43848c-1.5788,0.32677 -3.0238,1.11808 -4.1492,2.27224c-1.3798,1.38014 -3.018,2.47497 -4.8211,3.22194c-1.803,0.74697 -3.7357,1.13144 -5.6874,1.13144c-1.9517,0 -3.8844,-0.38447 -5.6874,-1.13144c-1.8031,-0.74697 -3.4413,-1.8418 -4.8211,-3.22194c-1.1364,-1.13507 -2.584,-1.90781 -4.1596,-2.22054c-1.5757,-0.31273 -3.2087,-0.15141 -4.6926,0.46357c-1.484,0.61498 -2.7523,1.65601 -3.6446,2.99149c-0.8923,1.33549 -1.3685,2.90548 -1.3685,4.51152c0,1.60604 0.4762,3.17601 1.3685,4.51151c0.8923,1.3355 2.1606,2.3765 3.6446,2.9915c1.4839,0.615 3.1169,0.7763 4.6926,0.4636c1.5756,-0.3128 3.0232,-1.0855 4.1596,-2.2206c1.3792,-1.3811 3.0173,-2.4768 4.8204,-3.2243c1.8032,-0.74761 3.7361,-1.1324 5.6881,-1.1324c1.952,0 3.8849,0.38479 5.6881,1.1324c1.8031,0.7475 3.4412,1.8432 4.8204,3.2243c2.7859,2.787 4.351,6.5659 4.351,10.5062c0,3.9402 -1.5651,7.7191 -4.351,10.5061c-1.3792,1.3811 -3.0173,2.4768 -4.8204,3.2244c-1.8032,0.7475 -3.7361,1.1323 -5.6881,1.1323c-1.952,0 -3.8849,-0.3848 -5.6881,-1.1323c-1.8031,-0.7476 -3.4412,-1.8433 -4.8204,-3.2244c-1.1364,-1.139 -2.5854,-1.9152 -4.1634,-2.2305c-1.5779,-0.3153 -3.214,-0.1554 -4.701,0.4594c-1.4871,0.6148 -2.7583,1.6568 -3.6527,2.9942c-0.8944,1.3374 -1.3718,2.9101 -1.3718,4.5189c0,1.6088 0.4774,3.1815 1.3718,4.5189c0.8944,1.3374 2.1656,2.3794 3.6527,2.9942c1.487,0.6148 3.1231,0.7747 4.701,0.4594c1.578,-0.3153 3.027,-1.0915 4.1634,-2.2305c2.7876,-2.7854 6.5674,-4.35 10.5085,-4.35c3.9411,0 7.7209,1.5646 10.5085,4.35c1.1278,1.1568 2.5765,1.949 4.1592,2.2746c1.5826,0.3256 3.2265,0.1695 4.7195,-0.4481c1.4931,-0.6176 2.7667,-1.6684 3.6566,-3.0168c0.8899,-1.3483 1.3552,-2.9324 1.3358,-4.5477c0.003,-1.0672 -0.2055,-2.1244 -0.6134,-3.1106c-0.4079,-0.9863 -1.0071,-1.882 -1.7631,-2.6354c-1.3887,-1.3798 -2.4908,-3.0205 -3.2428,-4.8277c-0.7521,-1.8072 -1.1393,-3.7453 -1.1393,-5.7027c0,-1.9574 0.3872,-3.8954 1.1393,-5.7027c0.752,-1.8072 1.8541,-3.4479 3.2428,-4.8277z"/>
  <path id="svg_2" fill="#65428A" d="m40.6279,48.7559c-1.0675,-0.003 -2.1249,0.2055 -3.1114,0.6133c-0.9864,0.4078 -1.8823,1.0069 -2.6359,1.7627c-1.3792,1.3811 -3.0173,2.4768 -4.8204,3.2244c-1.8032,0.7475 -3.736,1.1323 -5.6881,1.1323c-1.952,0 -3.8849,-0.3848 -5.6881,-1.1323c-1.8031,-0.7476 -3.4412,-1.8433 -4.8203,-3.2244c-1.3815,-1.3789 -2.4774,-3.0165 -3.2251,-4.8193c-0.74776,-1.8028 -1.13264,-3.7352 -1.13264,-5.6868c0,-1.9516 0.38488,-3.8841 1.13264,-5.6868c0.7477,-1.8028 1.8436,-3.4405 3.2251,-4.8193c1.3791,-1.3812 3.0172,-2.4768 4.8203,-3.2244c1.8032,-0.7476 3.7361,-1.1324 5.6881,-1.1324c1.9521,0 3.8849,0.3848 5.6881,1.1324c1.8031,0.7476 3.4412,1.8432 4.8204,3.2244c1.1365,1.1389 2.5854,1.9152 4.1634,2.2304c1.5779,0.3153 3.214,0.1554 4.701,-0.4593c1.4871,-0.6148 2.7583,-1.6569 3.6527,-2.9943c0.8944,-1.3374 1.3718,-2.91 1.3718,-4.5189c0,-1.6088 -0.4774,-3.1814 -1.3718,-4.5188c-0.8944,-1.3374 -2.1656,-2.3795 -3.6527,-2.9943c-1.487,-0.6147 -3.1231,-0.7746 -4.701,-0.4593c-1.578,0.3152 -3.0269,1.0915 -4.1634,2.2304c-2.7876,2.7854 -6.5674,4.3501 -10.5085,4.3501c-3.9411,0 -7.7209,-1.5647 -10.5084,-4.3501c-1.1289,-1.1544 -2.5776,-1.9443 -4.15962,-2.268c-1.58199,-0.3237 -3.22469,-0.1662 -4.71636,0.452c-1.49167,0.6183 -2.76394,1.6691 -3.65282,3.0169c-0.88887,1.3478 -1.35362,2.9309 -1.33432,4.5452c0.00337,1.0706 0.21948,2.1299 0.63578,3.1163c0.4163,0.9864 1.02449,1.8803 1.78925,2.6297c2.78598,2.787 4.35099,6.5659 4.35099,10.5062c0,3.9402 -1.56501,7.7191 -4.35099,10.5061c-0.76379,0.7485 -1.37142,1.641 -1.78769,2.626c-0.41627,0.9849 -0.6329,2.0427 -0.63734,3.1119c0.0027,1.6056 0.48081,3.1743 1.37404,4.5086c0.89322,1.3342 2.16157,2.3741 3.64514,2.9887c1.48356,0.6145 3.11591,0.7762 4.69123,0.4645c1.57531,-0.3116 3.02311,-1.0826 4.16071,-2.2157c1.3792,-1.3811 3.0173,-2.4768 4.8204,-3.2244c1.8032,-0.7475 3.7361,-1.1323 5.6881,-1.1323c1.952,0 3.8849,0.3848 5.6881,1.1323c1.8031,0.7476 3.4412,1.8433 4.8204,3.2244c0.9448,0.9437 2.1078,1.6399 3.386,2.0271c1.2782,0.3871 2.6321,0.4533 3.942,0.1925c1.3098,-0.2607 2.5351,-0.8403 3.5675,-1.6875c1.0324,-0.8471 1.8399,-1.9356 2.3511,-3.1692c0.5112,-1.2336 0.7104,-2.5741 0.5798,-3.903c-0.1305,-1.3288 -0.5868,-2.605 -1.3283,-3.7156c-0.7416,-1.1105 -1.7455,-2.0211 -2.9231,-2.6512c-1.1775,-0.6301 -2.4922,-0.9602 -3.8277,-0.9612l-0.0081,0z"/>
  <path id="svg_3" fill="#333333" d="m94.8711,53.5859c-2.4609,0 -4.668,-0.3906 -6.6211,-1.1718c-1.9531,-0.8008 -3.6133,-1.9043 -4.9805,-3.3106c-1.3476,-1.4062 -2.3828,-3.0371 -3.1054,-4.8926c-0.7227,-1.875 -1.084,-3.8671 -1.084,-5.9765l0,-1.1719c0,-2.4023 0.3418,-4.5996 1.0254,-6.5918c0.6836,-1.9922 1.6601,-3.7207 2.9297,-5.1855c1.289,-1.4649 2.8515,-2.5879 4.6875,-3.3692c1.8359,-0.8008 3.9062,-1.2012 6.2109,-1.2012c2.2461,0 4.2383,0.3711 5.9766,1.1133c1.7378,0.7422 3.1938,1.7969 4.3648,3.1641c1.192,1.3672 2.09,3.0078 2.696,4.9219c0.605,1.8945 0.908,4.0039 0.908,6.3281l0,3.5156l-25.1954,0l0,-5.625l16.9043,0l0,-0.6445c0,-1.1719 -0.2149,-2.2168 -0.6445,-3.1348c-0.4102,-0.9375 -1.0352,-1.6797 -1.875,-2.2265c-0.8399,-0.5469 -1.9141,-0.8204 -3.2227,-0.8204c-1.1133,0 -2.0703,0.2442 -2.8711,0.7325c-0.8008,0.4882 -1.4551,1.1718 -1.9629,2.0507c-0.4883,0.879 -0.8594,1.9141 -1.1133,3.1055c-0.2343,1.1719 -0.3515,2.4609 -0.3515,3.8672l0,1.1719c0,1.2695 0.1758,2.4414 0.5273,3.5156c0.3711,1.0742 0.8887,2.002 1.5528,2.7832c0.6835,0.7813 1.5039,1.3867 2.4609,1.8164c0.9766,0.4297 2.0801,0.6445 3.3105,0.6445c1.5235,0 2.9395,-0.2929 4.2481,-0.8789c1.3285,-0.6054 2.4705,-1.5136 3.4275,-2.7246l4.102,4.4532c-0.664,0.957 -1.572,1.875 -2.725,2.7539c-1.133,0.8789 -2.5,1.6015 -4.101,2.1679c-1.602,0.5469 -3.4281,0.8203 -5.4789,0.8203zm24.6089,-32.2851l5.245,9.6387l5.39,-9.6387l8.994,0l-8.964,15.498l9.375,16.2012l-9.024,0l-5.713,-10.1953l-5.713,10.1953l-9.023,0l9.375,-16.2012l-8.965,-15.498l9.023,0zm41.866,24.7851l0,-38.0859l8.496,0l0,45l-7.647,0l-0.849,-6.9141zm-20.039,-8.5547l0,-0.6152c0,-2.4219 0.273,-4.6191 0.82,-6.5918c0.547,-1.9922 1.348,-3.7012 2.402,-5.1269c1.055,-1.4258 2.354,-2.5293 3.897,-3.3106c1.543,-0.7812 3.301,-1.1719 5.273,-1.1719c1.856,0 3.477,0.3907 4.863,1.1719c1.407,0.7813 2.598,1.8945 3.575,3.3399c0.996,1.4257 1.797,3.1152 2.402,5.0683c0.606,1.9336 1.045,4.0528 1.318,6.3574l0,1.3477c-0.273,2.207 -0.712,4.2578 -1.318,6.1523c-0.605,1.8946 -1.406,3.5547 -2.402,4.9805c-0.977,1.4063 -2.168,2.5 -3.575,3.2813c-1.406,0.7812 -3.046,1.1718 -4.921,1.1718c-1.973,0 -3.731,-0.4004 -5.274,-1.2011c-1.523,-0.8008 -2.812,-1.9239 -3.867,-3.3692c-1.035,-1.4453 -1.826,-3.1445 -2.373,-5.0976c-0.547,-1.9532 -0.82,-4.0821 -0.82,-6.3868zm8.437,-0.6152l0,0.6152c0,1.3086 0.098,2.5293 0.293,3.6622c0.215,1.1328 0.557,2.1386 1.025,3.0175c0.489,0.8594 1.114,1.5332 1.876,2.0215c0.781,0.4688 1.728,0.7031 2.841,0.7031c1.446,0 2.637,-0.3222 3.575,-0.9667c0.937,-0.6641 1.65,-1.5723 2.138,-2.7247c0.508,-1.1523 0.801,-2.4804 0.879,-3.9843l0,-3.8379c-0.059,-1.2305 -0.234,-2.334 -0.527,-3.3106c-0.274,-0.9961 -0.684,-1.8457 -1.231,-2.5488c-0.527,-0.7031 -1.191,-1.25 -1.992,-1.6406c-0.781,-0.3907 -1.709,-0.586 -2.783,-0.586c-1.094,0 -2.031,0.2539 -2.813,0.7618c-0.781,0.4882 -1.416,1.1621 -1.904,2.0214c-0.469,0.8594 -0.82,1.875 -1.055,3.0469c-0.214,1.1524 -0.322,2.4024 -0.322,3.75zm41.279,16.6699c-2.461,0 -4.668,-0.3906 -6.621,-1.1718c-1.953,-0.8008 -3.613,-1.9043 -4.98,-3.3106c-1.348,-1.4062 -2.383,-3.0371 -3.106,-4.8926c-0.722,-1.875 -1.084,-3.8671 -1.084,-5.9765l0,-1.1719c0,-2.4023 0.342,-4.5996 1.026,-6.5918c0.683,-1.9922 1.66,-3.7207 2.93,-5.1855c1.289,-1.4649 2.851,-2.5879 4.687,-3.3692c1.836,-0.8008 3.906,-1.2012 6.211,-1.2012c2.246,0 4.238,0.3711 5.976,1.1133c1.739,0.7422 3.194,1.7969 4.366,3.1641c1.191,1.3672 2.09,3.0078 2.695,4.9219c0.606,1.8945 0.908,4.0039 0.908,6.3281l0,3.5156l-25.195,0l0,-5.625l16.904,0l0,-0.6445c0,-1.1719 -0.215,-2.2168 -0.644,-3.1348c-0.41,-0.9375 -1.035,-1.6797 -1.875,-2.2265c-0.84,-0.5469 -1.914,-0.8204 -3.223,-0.8204c-1.113,0 -2.07,0.2442 -2.871,0.7325c-0.801,0.4882 -1.455,1.1718 -1.963,2.0507c-0.488,0.879 -0.859,1.9141 -1.113,3.1055c-0.235,1.1719 -0.352,2.4609 -0.352,3.8672l0,1.1719c0,1.2695 0.176,2.4414 0.528,3.5156c0.371,1.0742 0.888,2.002 1.552,2.7832c0.684,0.7813 1.504,1.3867 2.461,1.8164c0.977,0.4297 2.08,0.6445 3.311,0.6445c1.523,0 2.939,-0.2929 4.248,-0.8789c1.328,-0.6054 2.471,-1.5136 3.428,-2.7246l4.101,4.4532c-0.664,0.957 -1.572,1.875 -2.724,2.7539c-1.133,0.8789 -2.5,1.6015 -4.102,2.1679c-1.602,0.5469 -3.428,0.8203 -5.479,0.8203zm28.184,-6.7382l7.031,-25.5469l8.819,0l-10.694,31.6992l-5.332,0l0.176,-6.1523zm-4.834,-25.5469l7.061,25.5762l0.146,6.123l-5.361,0l-10.694,-31.6992l8.848,0z"/>
  <path id="svg_4" d="m241,5.5" opacity="NaN" stroke="#000" fill="#fff"/>
 </g>
</svg>