<svg width="255" height="65" viewBox="0 0 255 65" fill="none" xmlns="http://www.w3.org/2000/svg">
<path d="M63.1229 13.8836C63.8789 13.1302 64.4781 12.2345 64.886 11.2483C65.2939 10.262 65.5024 9.20481 65.4994 8.1376C65.5106 6.52574 65.0394 4.94736 64.1464 3.60531C63.2534 2.26326 61.9793 1.21884 60.488 0.606294C58.9967 -0.00625664 57.3563 -0.15896 55.7775 0.167809C54.1987 0.494577 52.7537 1.28589 51.6283 2.44005C50.2485 3.82019 48.6103 4.91502 46.8072 5.66199C45.0042 6.40896 43.0715 6.79343 41.1198 6.79343C39.1681 6.79343 37.2354 6.40896 35.4324 5.66199C33.6293 4.91502 31.9911 3.82019 30.6113 2.44005C29.4749 1.30498 28.0273 0.532238 26.4517 0.21951C24.876 -0.0932182 23.243 0.0681027 21.7591 0.683081C20.2751 1.29806 19.0068 2.33909 18.1145 3.67457C17.2222 5.01006 16.746 6.58005 16.746 8.18609C16.746 9.79213 17.2222 11.3621 18.1145 12.6976C19.0068 14.0331 20.2751 15.0741 21.7591 15.6891C23.243 16.3041 24.876 16.4654 26.4517 16.1527C28.0273 15.8399 29.4749 15.0672 30.6113 13.9321C31.9905 12.551 33.6286 11.4553 35.4317 10.7078C37.2349 9.96019 39.1678 9.5754 41.1198 9.5754C43.0718 9.5754 45.0047 9.96019 46.8079 10.7078C48.611 11.4553 50.2491 12.551 51.6283 13.9321C54.4142 16.7191 55.9793 20.498 55.9793 24.4383C55.9793 28.3785 54.4142 32.1574 51.6283 34.9444C50.2491 36.3255 48.611 37.4212 46.8079 38.1688C45.0047 38.9163 43.0718 39.3011 41.1198 39.3011C39.1678 39.3011 37.2349 38.9163 35.4317 38.1688C33.6286 37.4212 31.9905 36.3255 30.6113 34.9444C29.4749 33.8054 28.0259 33.0292 26.4479 32.7139C24.87 32.3986 23.2339 32.5585 21.7469 33.1733C20.2598 33.7881 18.9886 34.8301 18.0942 36.1675C17.1998 37.5049 16.7224 39.0776 16.7224 40.6864C16.7224 42.2952 17.1998 43.8679 18.0942 45.2053C18.9886 46.5427 20.2598 47.5847 21.7469 48.1995C23.2339 48.8143 24.87 48.9742 26.4479 48.6589C28.0259 48.3436 29.4749 47.5674 30.6113 46.4284C33.3989 43.643 37.1787 42.0784 41.1198 42.0784C45.0609 42.0784 48.8407 43.643 51.6283 46.4284C52.7561 47.5852 54.2048 48.3774 55.7875 48.703C57.3701 49.0286 59.014 48.8725 60.507 48.2549C62.0001 47.6373 63.2737 46.5865 64.1636 45.2381C65.0535 43.8898 65.5188 42.3057 65.4994 40.6904C65.5024 39.6232 65.2939 38.566 64.886 37.5798C64.4781 36.5935 63.8789 35.6978 63.1229 34.9444C61.7342 33.5646 60.6321 31.9239 59.8801 30.1167C59.128 28.3095 58.7408 26.3714 58.7408 24.414C58.7408 22.4566 59.128 20.5186 59.8801 18.7113C60.6321 16.9041 61.7342 15.2634 63.1229 13.8836Z" fill="#0097A9"/>
<path d="M41.1279 48.7559C40.0604 48.7529 39.003 48.9614 38.0165 49.3692C37.0301 49.777 36.1342 50.3761 35.3806 51.1319C34.0014 52.513 32.3633 53.6087 30.5602 54.3563C28.757 55.1038 26.8242 55.4886 24.8721 55.4886C22.9201 55.4886 20.9872 55.1038 19.184 54.3563C17.3809 53.6087 15.7428 52.513 14.3637 51.1319C12.9822 49.753 11.8863 48.1154 11.1386 46.3126C10.3908 44.5098 10.006 42.5774 10.006 40.6258C10.006 38.6742 10.3908 36.7417 11.1386 34.939C11.8863 33.1362 12.9822 31.4985 14.3637 30.1197C15.7428 28.7385 17.3809 27.6429 19.184 26.8953C20.9872 26.1477 22.9201 25.7629 24.8721 25.7629C26.8242 25.7629 28.757 26.1477 30.5602 26.8953C32.3633 27.6429 34.0014 28.7385 35.3806 30.1197C36.5171 31.2586 37.966 32.0349 39.544 32.3501C41.1219 32.6654 42.758 32.5055 44.245 31.8908C45.7321 31.276 47.0033 30.2339 47.8977 28.8965C48.7921 27.5591 49.2695 25.9865 49.2695 24.3776C49.2695 22.7688 48.7921 21.1962 47.8977 19.8588C47.0033 18.5214 45.7321 17.4793 44.245 16.8645C42.758 16.2498 41.1219 16.0899 39.544 16.4052C37.966 16.7204 36.5171 17.4967 35.3806 18.6356C32.593 21.421 28.8132 22.9857 24.8721 22.9857C20.931 22.9857 17.1512 21.421 14.3637 18.6356C13.2348 17.4812 11.7861 16.6913 10.2041 16.3676C8.62209 16.0439 6.97939 16.2014 5.48772 16.8196C3.99605 17.4379 2.72378 18.4887 1.8349 19.8365C0.946026 21.1843 0.481283 22.7674 0.500577 24.3817C0.503948 25.4523 0.72006 26.5116 1.13636 27.498C1.55266 28.4844 2.16085 29.3783 2.92561 30.1277C5.71159 32.9147 7.2766 36.6936 7.2766 40.6339C7.2766 44.5741 5.71159 48.353 2.92561 51.14C2.16182 51.8885 1.55419 52.781 1.13792 53.766C0.721647 54.7509 0.505017 55.8087 0.500577 56.8779C0.503283 58.4835 0.981389 60.0522 1.87462 61.3865C2.76784 62.7207 4.03619 63.7606 5.51976 64.3752C7.00332 64.9897 8.63567 65.1514 10.211 64.8397C11.7863 64.5281 13.2341 63.7571 14.3717 62.624C15.7509 61.2429 17.389 60.1472 19.1921 59.3996C20.9953 58.6521 22.9282 58.2673 24.8802 58.2673C26.8322 58.2673 28.7651 58.6521 30.5683 59.3996C32.3714 60.1472 34.0095 61.2429 35.3887 62.624C36.3335 63.5677 37.4965 64.2639 38.7747 64.6511C40.0529 65.0382 41.4068 65.1044 42.7167 64.8436C44.0265 64.5829 45.2518 64.0033 46.2842 63.1561C47.3166 62.309 48.1241 61.2205 48.6353 59.9869C49.1465 58.7533 49.3457 57.4128 49.2151 56.0839C49.0846 54.7551 48.6283 53.4789 47.8868 52.3683C47.1452 51.2578 46.1413 50.3472 44.9637 49.7171C43.7862 49.087 42.4715 48.7569 41.136 48.7559H41.1279Z" fill="#65428A"/>
<path d="M95.3711 53.5859C92.9102 53.5859 90.7031 53.1953 88.75 52.4141C86.7969 51.6133 85.1367 50.5098 83.7695 49.1035C82.4219 47.6973 81.3867 46.0664 80.6641 44.2109C79.9414 42.3359 79.5801 40.3438 79.5801 38.2344V37.0625C79.5801 34.6602 79.9219 32.4629 80.6055 30.4707C81.2891 28.4785 82.2656 26.75 83.5352 25.2852C84.8242 23.8203 86.3867 22.6973 88.2227 21.916C90.0586 21.1152 92.1289 20.7148 94.4336 20.7148C96.6797 20.7148 98.6719 21.0859 100.41 21.8281C102.148 22.5703 103.604 23.625 104.775 24.9922C105.967 26.3594 106.865 28 107.471 29.9141C108.076 31.8086 108.379 33.918 108.379 36.2422V39.7578H83.1836V34.1328H100.088V33.4883C100.088 32.3164 99.873 31.2715 99.4434 30.3535C99.0332 29.416 98.4082 28.6738 97.5684 28.127C96.7285 27.5801 95.6543 27.3066 94.3457 27.3066C93.2324 27.3066 92.2754 27.5508 91.4746 28.0391C90.6738 28.5273 90.0195 29.2109 89.5117 30.0898C89.0234 30.9688 88.6523 32.0039 88.3984 33.1953C88.1641 34.3672 88.0469 35.6562 88.0469 37.0625V38.2344C88.0469 39.5039 88.2227 40.6758 88.5742 41.75C88.9453 42.8242 89.4629 43.752 90.127 44.5332C90.8105 45.3145 91.6309 45.9199 92.5879 46.3496C93.5645 46.7793 94.668 46.9941 95.8984 46.9941C97.4219 46.9941 98.8379 46.7012 100.146 46.1152C101.475 45.5098 102.617 44.6016 103.574 43.3906L107.676 47.8438C107.012 48.8008 106.104 49.7188 104.951 50.5977C103.818 51.4766 102.451 52.1992 100.85 52.7656C99.248 53.3125 97.4219 53.5859 95.3711 53.5859ZM119.98 21.3008L125.225 30.9395L130.615 21.3008H139.609L130.645 36.7988L140.02 53H130.996L125.283 42.8047L119.57 53H110.547L119.922 36.7988L110.957 21.3008H119.98ZM161.846 46.0859V8H170.342V53H162.695L161.846 46.0859ZM141.807 37.5312V36.916C141.807 34.4941 142.08 32.2969 142.627 30.3242C143.174 28.332 143.975 26.623 145.029 25.1973C146.084 23.7715 147.383 22.668 148.926 21.8867C150.469 21.1055 152.227 20.7148 154.199 20.7148C156.055 20.7148 157.676 21.1055 159.062 21.8867C160.469 22.668 161.66 23.7812 162.637 25.2266C163.633 26.6523 164.434 28.3418 165.039 30.2949C165.645 32.2285 166.084 34.3477 166.357 36.6523V38C166.084 40.207 165.645 42.2578 165.039 44.1523C164.434 46.0469 163.633 47.707 162.637 49.1328C161.66 50.5391 160.469 51.6328 159.062 52.4141C157.656 53.1953 156.016 53.5859 154.141 53.5859C152.168 53.5859 150.41 53.1855 148.867 52.3848C147.344 51.584 146.055 50.4609 145 49.0156C143.965 47.5703 143.174 45.8711 142.627 43.918C142.08 41.9648 141.807 39.8359 141.807 37.5312ZM150.244 36.916V37.5312C150.244 38.8398 150.342 40.0605 150.537 41.1934C150.752 42.3262 151.094 43.332 151.562 44.2109C152.051 45.0703 152.676 45.7441 153.438 46.2324C154.219 46.7012 155.166 46.9355 156.279 46.9355C157.725 46.9355 158.916 46.6133 159.854 45.9688C160.791 45.3047 161.504 44.3965 161.992 43.2441C162.5 42.0918 162.793 40.7637 162.871 39.2598V35.4219C162.812 34.1914 162.637 33.0879 162.344 32.1113C162.07 31.1152 161.66 30.2656 161.113 29.5625C160.586 28.8594 159.922 28.3125 159.121 27.9219C158.34 27.5312 157.412 27.3359 156.338 27.3359C155.244 27.3359 154.307 27.5898 153.525 28.0977C152.744 28.5859 152.109 29.2598 151.621 30.1191C151.152 30.9785 150.801 31.9941 150.566 33.166C150.352 34.3184 150.244 35.5684 150.244 36.916ZM191.523 53.5859C189.062 53.5859 186.855 53.1953 184.902 52.4141C182.949 51.6133 181.289 50.5098 179.922 49.1035C178.574 47.6973 177.539 46.0664 176.816 44.2109C176.094 42.3359 175.732 40.3438 175.732 38.2344V37.0625C175.732 34.6602 176.074 32.4629 176.758 30.4707C177.441 28.4785 178.418 26.75 179.688 25.2852C180.977 23.8203 182.539 22.6973 184.375 21.916C186.211 21.1152 188.281 20.7148 190.586 20.7148C192.832 20.7148 194.824 21.0859 196.562 21.8281C198.301 22.5703 199.756 23.625 200.928 24.9922C202.119 26.3594 203.018 28 203.623 29.9141C204.229 31.8086 204.531 33.918 204.531 36.2422V39.7578H179.336V34.1328H196.24V33.4883C196.24 32.3164 196.025 31.2715 195.596 30.3535C195.186 29.416 194.561 28.6738 193.721 28.127C192.881 27.5801 191.807 27.3066 190.498 27.3066C189.385 27.3066 188.428 27.5508 187.627 28.0391C186.826 28.5273 186.172 29.2109 185.664 30.0898C185.176 30.9688 184.805 32.0039 184.551 33.1953C184.316 34.3672 184.199 35.6562 184.199 37.0625V38.2344C184.199 39.5039 184.375 40.6758 184.727 41.75C185.098 42.8242 185.615 43.752 186.279 44.5332C186.963 45.3145 187.783 45.9199 188.74 46.3496C189.717 46.7793 190.82 46.9941 192.051 46.9941C193.574 46.9941 194.99 46.7012 196.299 46.1152C197.627 45.5098 198.77 44.6016 199.727 43.3906L203.828 47.8438C203.164 48.8008 202.256 49.7188 201.104 50.5977C199.971 51.4766 198.604 52.1992 197.002 52.7656C195.4 53.3125 193.574 53.5859 191.523 53.5859ZM219.707 46.8477L226.738 21.3008H235.557L224.863 53H219.531L219.707 46.8477ZM214.873 21.3008L221.934 46.877L222.08 53H216.719L206.025 21.3008H214.873Z" fill="white"/>
</svg>
